<?xml version="1.0" encoding="UTF-8"?>
<svg width="24px" height="24px" viewBox="0 0 24 24" version="1.1" xmlns="http://www.w3.org/2000/svg">
    <g stroke="none" stroke-width="1" fill="none" fill-rule="evenodd">
        <path d="M16,6 L16,8 C16,10.97 13.84,13.44 11,13.92 L11,18 L13,18 L13,20 L7,20 L7,18 L9,18 L9,13.92 C6.16,13.44 4,10.97 4,8 L4,6 L6,6 L6,8 C6,10.21 7.79,12 10,12 L10,6 L12,6 L12,12 C14.21,12 16,10.21 16,8 L16,6 Z M20,10 L20,12 C20,13.1 19.1,14 18,14 L18,10 L20,10 Z" fill="#fd79a8"></path>
    </g>
</svg>
