<?xml version="1.0" encoding="UTF-8"?>
<svg width="24px" height="24px" viewBox="0 0 24 24" version="1.1" xmlns="http://www.w3.org/2000/svg">
    <g stroke="none" stroke-width="1" fill="none" fill-rule="evenodd">
        <path d="M12,2 C17.52,2 22,6.48 22,12 C22,17.52 17.52,22 12,22 C6.48,22 2,17.52 2,12 C2,6.48 6.48,2 12,2 Z M12,4 C7.58,4 4,7.58 4,12 C4,16.42 7.58,20 12,20 C16.42,20 20,16.42 20,12 C20,7.58 16.42,4 12,4 Z" fill="#FF9800" fill-rule="nonzero"></path>
        <path d="M13,11.5 L13,7 C13,6.45 12.55,6 12,6 C11.45,6 11,6.45 11,7 L11,12 C11,12.55 11.45,13 12,13 L16,13 C16.55,13 17,12.55 17,12 C17,11.45 16.55,11 16,11 L13,11 L13,11.5 Z" fill="#FF9800" fill-rule="nonzero"></path>
        <path d="M7,13 L5,13 C4.45,13 4,12.55 4,12 C4,11.45 4.45,11 5,11 L7,11 C7.55,11 8,11.45 8,12 C8,12.55 7.55,13 7,13 Z" fill="#FF9800" fill-rule="nonzero"></path>
        <path d="M12,8 L12,6 C12,5.45 12.45,5 13,5 C13.55,5 14,5.45 14,6 L14,8 C14,8.55 13.55,9 13,9 C12.45,9 12,8.55 12,8 Z" fill="#FF9800" fill-rule="nonzero"></path>
        <path d="M18.36,16.95 C17.97,16.56 17.97,15.95 18.36,15.55 C18.75,15.16 19.36,15.16 19.76,15.55 C20.15,15.95 20.15,16.56 19.76,16.95 C19.36,17.34 18.75,17.34 18.36,16.95 Z" fill="#FF9800" fill-rule="nonzero"></path>
        <path d="M18.36,7.05 C18.75,6.66 19.36,6.66 19.76,7.05 C20.15,7.44 20.15,8.05 19.76,8.45 C19.36,8.84 18.75,8.84 18.36,8.45 C17.97,8.05 17.97,7.44 18.36,7.05 Z" fill="#FF9800" fill-rule="nonzero"></path>
        <path d="M4.24,15.55 C4.63,15.16 5.24,15.16 5.64,15.55 C6.03,15.95 6.03,16.56 5.64,16.95 C5.24,17.34 4.63,17.34 4.24,16.95 C3.85,16.56 3.85,15.95 4.24,15.55 Z" fill="#FF9800" fill-rule="nonzero"></path>
        <path d="M4.24,8.45 C3.85,8.05 3.85,7.44 4.24,7.05 C4.63,6.66 5.24,6.66 5.64,7.05 C6.03,7.44 6.03,8.05 5.64,8.45 C5.24,8.84 4.63,8.84 4.24,8.45 Z" fill="#FF9800" fill-rule="nonzero"></path>
        <path d="M19,13 L17,13 C16.45,13 16,12.55 16,12 C16,11.45 16.45,11 17,11 L19,11 C19.55,11 20,11.45 20,12 C20,12.55 19.55,13 19,13 Z" fill="#FF9800" fill-rule="nonzero"></path>
        <path d="M12,20 L12,18 C12,17.45 12.45,17 13,17 C13.55,17 14,17.45 14,18 L14,20 C14,20.55 13.55,21 13,21 C12.45,21 12,20.55 12,20 Z" fill="#FF9800" fill-rule="nonzero"></path>
    </g>
</svg>
