<?xml version="1.0" encoding="UTF-8"?>
<svg width="24px" height="24px" viewBox="0 0 24 24" version="1.1" xmlns="http://www.w3.org/2000/svg">
    <g stroke="none" stroke-width="1" fill="none" fill-rule="evenodd">
        <path d="M20.5,11 L19,11 L19,7 C19,5.9 18.1,5 17,5 L13,5 L13,3.5 C13,2.12 11.88,1 10.5,1 C9.12,1 8,2.12 8,3.5 L8,5 L4,5 C2.9,5 2,5.9 2,7 L2,10.8 L3.5,10.8 C5.5,10.8 7,12.3 7,14.3 C7,16.3 5.5,17.8 3.5,17.8 L2,17.8 L2,22 C2,23.1 2.9,24 4,24 L7.8,24 L7.8,22.5 C7.8,20.5 9.3,19 11.3,19 C13.3,19 14.8,20.5 14.8,22.5 L14.8,24 L19,24 C20.1,24 21,23.1 21,22 L21,18 L20.5,18 C19.12,18 18,16.88 18,15.5 C18,14.12 19.12,13 20.5,13 L22,13 L22,13 C23.1,13 24,12.1 24,11 L24,13 C24,11.9 23.1,11 22,11 L20.5,11 Z" fill="#55efc4"></path>
    </g>
</svg>
