<?xml version="1.0" encoding="UTF-8" standalone="no"?>
<svg width="800" height="500" viewBox="0 0 800 500" xmlns="http://www.w3.org/2000/svg">
  <rect width="800" height="500" fill="#1a1b2e"/>
  <rect x="20" y="20" width="760" height="60" rx="5" fill="#3f51b5" opacity="0.8"/>
  <rect x="40" y="40" width="200" height="20" rx="3" fill="white" opacity="0.7"/>
  <rect x="600" y="40" width="160" height="20" rx="3" fill="white" opacity="0.5"/>
  
  <!-- Left sidebar -->
  <rect x="20" y="100" width="200" height="380" rx="5" fill="#2d3748" opacity="0.7"/>
  <rect x="40" y="120" width="160" height="20" rx="3" fill="white" opacity="0.6"/>
  <rect x="40" y="160" width="160" height="20" rx="3" fill="white" opacity="0.4"/>
  <rect x="40" y="200" width="160" height="20" rx="3" fill="white" opacity="0.4"/>
  <rect x="40" y="240" width="160" height="20" rx="3" fill="white" opacity="0.4"/>
  <rect x="40" y="280" width="160" height="20" rx="3" fill="white" opacity="0.4"/>
  
  <!-- Main content -->
  <rect x="240" y="100" width="540" height="180" rx="5" fill="#2d3748" opacity="0.7"/>
  <rect x="260" y="120" width="300" height="30" rx="3" fill="#00b0ff" opacity="0.8"/>
  <rect x="260" y="170" width="500" height="90" rx="3" fill="white" opacity="0.2"/>
  
  <!-- API endpoints -->
  <rect x="240" y="300" width="540" height="180" rx="5" fill="#2d3748" opacity="0.7"/>
  <rect x="260" y="320" width="200" height="20" rx="3" fill="white" opacity="0.6"/>
  
  <rect x="260" y="360" width="500" height="1" fill="white" opacity="0.2"/>
  <rect x="260" y="380" width="100" height="20" rx="3" fill="#4caf50" opacity="0.7"/>
  <rect x="380" y="380" width="200" height="20" rx="3" fill="white" opacity="0.4"/>
  
  <rect x="260" y="420" width="500" height="1" fill="white" opacity="0.2"/>
  <rect x="260" y="440" width="100" height="20" rx="3" fill="#f44336" opacity="0.7"/>
  <rect x="380" y="440" width="200" height="20" rx="3" fill="white" opacity="0.4"/>
  
  <!-- Decorative elements -->
  <circle cx="750" cy="50" r="10" fill="#00b0ff" opacity="0.8"/>
  <circle cx="720" cy="50" r="10" fill="#e91e63" opacity="0.8"/>
</svg>
